<svg xmlns="http://www.w3.org/2000/svg" xmlns:xlink="http://www.w3.org/1999/xlink" width="700" height="500">
<defs>
<style type="text/css"><![CDATA[
  .borderLine {
	   stroke: none;
	   fill-opacity:  0.2 ;
  }
  .outLine {
	   stroke-width:  1 ;
	   fill: none;
  }
  .circle {
	   stroke: #888888;
	   stroke-width: 0.5;
	   fill: none;
    pointer-events: all;
  }
  .nLabel {
	   font-family: Arial;
    pointer-events: none;
	   font-size: 10px;
	   text-anchor: middle;
	   alignment-baseline: central;
  }
  .belong {
	   font-family: Arial;
    pointer-events: none;
	   font-size: 5px;
	   text-anchor: middle;
	   alignment-baseline: central;
  }
  .legend {
    font-family: Arial;
    font-size: 15px;
  }
  #legendBox {
    display:  inline ;
  }
  .p0{
    stroke: none;
    fill: #e6194b;
  }
  .q0{
    fill: none;
    stroke: #e6194b;
  }
  .p1{
    stroke: none;
    fill: #3cb44b;
  }
  .q1{
    fill: none;
    stroke: #3cb44b;
  }
  .p2{
    stroke: none;
    fill: #ffe119;
  }
  .q2{
    fill: none;
    stroke: #ffe119;
  }
]]>
</style>
<symbol id="bl0">
<path d="M 280.59 389.95 L 278.54 397.11 L 276.11 404.16 L 273.32 411.05 L 270.13 417.73 L 266.61 424.20 L 262.75 430.46 L 258.54 436.45 L 254.02 442.20 L 249.20 447.70 L 244.05 452.91 L 238.62 457.85 L 232.91 462.51 L 226.90 466.84 L 220.64 470.86 L 214.18 474.54 L 207.52 477.83 L 200.69 480.74 L 193.73 483.28 L 186.66 485.39 L 179.49 487.12 L 172.26 488.46 L 164.97 489.36 L 157.65 489.87 L 150.31 490.00 L 142.97 489.68 L 135.65 488.98 L 128.37 487.88 L 121.17 486.35 L 114.05 484.44 L 107.06 482.16 L 100.23 479.47 L 93.56 476.43 L 87.08 473.05 L 80.81 469.28 L 74.75 465.20 L 68.91 460.80 L 63.35 456.05 L 58.04 451.02 L 53.00 445.70 L 48.27 440.08 L 43.84 434.19 L 39.73 428.08 L 35.98 421.71 L 32.57 415.15 L 29.51 408.43 L 26.88 401.54 L 24.61 394.54 L 22.72 387.44 L 21.26 380.25 L 20.16 373.01 L 19.38 365.73 L 18.96 358.42 L 18.80 351.11 L 18.86 343.80 L 19.13 336.51 L 19.52 329.24 L 19.95 321.95 L 20.39 314.62 L 20.83 307.28 L 21.30 299.92 L 21.81 292.53 L 22.34 285.15 L 22.85 277.77 L 23.31 270.42 L 23.73 263.09 L 24.10 255.78 L 24.43 248.49 L 24.74 241.21 L 25.06 233.92 L 25.42 226.60 L 25.83 219.27 L 26.27 211.95 L 26.76 204.63 L 27.28 197.31 L 27.80 189.99 L 28.31 182.67 L 28.81 175.34 L 29.30 167.99 L 29.81 160.61 L 30.38 153.21 L 31.12 145.83 L 32.15 138.51 L 33.50 131.26 L 35.32 124.17 L 37.74 117.31 L 40.72 110.68 L 44.26 104.32 L 48.41 98.30 L 53.08 92.61 L 58.24 87.34 L 63.90 82.57 L 69.95 78.29 L 76.30 74.55 L 82.92 71.48 L 89.76 68.99 L 96.75 67.10 L 103.89 65.89 L 111.13 65.29 L 118.44 65.31 L 125.78 66.05 L 133.08 67.41 L 140.25 69.40 L 147.20 72.08 L 153.89 75.35 L 160.28 79.18 L 166.26 83.63 L 171.84 88.57 L 176.95 93.94 L 181.47 99.74 L 185.44 105.92 L 188.82 112.44 L 191.49 119.35 L 193.51 126.58 L 194.87 134.09 L 195.50 141.89 L 195.67 149.87 L 195.75 157.91 L 196.06 165.91 L 196.80 173.82 L 197.95 181.63 L 199.53 189.29 L 201.62 196.78 L 204.15 204.13 L 207.09 211.36 L 210.50 218.46 L 214.29 225.40 L 218.39 232.10 L 222.83 238.46 L 227.56 244.53 L 232.61 250.37 L 237.98 255.98 L 243.47 261.47 L 248.78 266.98 L 253.72 272.60 L 258.30 278.36 L 262.54 284.34 L 266.43 290.59 L 269.99 297.07 L 273.20 303.73 L 276.00 310.55 L 278.42 317.51 L 280.47 324.57 L 282.08 331.72 L 283.31 338.95 L 284.16 346.21 L 284.57 353.48 L 284.59 360.76 L 284.22 368.06 L 283.41 375.38 L 282.19 382.69 Z" />
</symbol>
<symbol id="bl1">
<path d="M 390.03 286.80 L 382.51 289.49 L 374.89 291.77 L 367.15 293.63 L 359.27 295.02 L 351.30 295.99 L 343.26 296.52 L 335.17 296.55 L 327.05 296.13 L 318.92 295.27 L 310.80 293.90 L 302.73 292.09 L 294.81 289.85 L 287.09 287.15 L 279.60 284.05 L 272.37 280.61 L 265.44 276.78 L 258.74 272.59 L 252.17 267.97 L 245.71 262.91 L 239.28 257.64 L 232.82 252.56 L 226.30 247.91 L 219.67 243.69 L 212.85 239.87 L 205.80 236.50 L 198.57 233.54 L 191.21 230.99 L 183.75 228.94 L 176.16 227.34 L 168.42 226.22 L 160.49 225.66 L 152.41 225.58 L 144.30 225.96 L 136.19 226.81 L 128.10 227.90 L 120.04 228.88 L 112.02 229.32 L 104.08 228.90 L 96.30 227.73 L 88.80 225.85 L 81.69 223.22 L 74.91 219.91 L 68.39 215.92 L 62.14 211.14 L 56.24 205.76 L 50.87 199.93 L 46.21 193.68 L 42.18 187.03 L 38.78 179.94 L 36.08 172.31 L 34.03 164.30 L 32.73 156.13 L 32.30 147.90 L 32.64 139.75 L 33.67 131.86 L 35.45 124.38 L 37.89 117.24 L 40.98 110.38 L 44.79 103.79 L 49.27 97.47 L 54.42 91.45 L 60.33 85.85 L 66.76 80.66 L 73.51 75.98 L 80.47 71.90 L 87.52 68.27 L 94.58 64.89 L 101.59 61.66 L 108.56 58.50 L 115.49 55.34 L 122.41 52.16 L 129.39 48.92 L 136.56 45.59 L 144.04 42.11 L 151.88 38.53 L 160.16 34.84 L 168.86 31.03 L 177.54 27.10 L 185.81 23.09 L 193.73 19.24 L 201.53 15.91 L 209.38 13.43 L 217.34 11.79 L 225.50 11.03 L 233.96 11.19 L 242.76 11.76 L 251.99 12.03 L 261.62 11.68 L 271.20 11.10 L 280.28 10.79 L 288.92 10.74 L 297.31 10.72 L 305.56 10.57 L 313.77 10.34 L 322.00 10.12 L 330.28 10.00 L 338.55 10.05 L 346.74 10.40 L 354.75 11.16 L 362.64 12.32 L 370.42 13.88 L 378.11 15.91 L 385.67 18.34 L 393.04 21.13 L 400.15 24.33 L 407.04 27.88 L 413.77 31.82 L 420.33 36.22 L 426.72 41.01 L 432.93 46.21 L 438.89 51.87 L 444.60 57.89 L 449.98 64.23 L 454.95 70.89 L 459.53 77.76 L 463.67 84.75 L 467.29 91.84 L 470.49 99.06 L 473.30 106.52 L 475.69 114.27 L 477.70 122.25 L 479.29 130.30 L 480.37 138.35 L 481.00 146.39 L 481.20 154.39 L 480.91 162.35 L 480.18 170.30 L 479.00 178.28 L 477.31 186.31 L 475.19 194.29 L 472.68 202.06 L 469.76 209.52 L 466.49 216.69 L 462.86 223.62 L 458.83 230.30 L 454.42 236.80 L 449.59 243.15 L 444.27 249.34 L 438.52 255.34 L 432.38 261.06 L 425.82 266.43 L 418.96 271.42 L 411.92 275.99 L 404.73 280.04 L 397.43 283.64 Z" />
</symbol>
<symbol id="bl2">
<path d="M 382.76 312.50 L 375.82 319.37 L 368.91 326.24 L 362.06 333.09 L 355.29 339.93 L 348.59 346.76 L 341.90 353.59 L 335.20 360.45 L 328.46 367.33 L 321.68 374.25 L 314.82 381.23 L 307.90 388.25 L 300.94 395.26 L 293.94 402.24 L 286.93 409.21 L 279.92 416.18 L 272.93 423.17 L 265.97 430.20 L 259.02 437.27 L 252.08 444.36 L 245.04 451.32 L 237.73 457.92 L 230.03 463.94 L 221.98 469.39 L 213.62 474.24 L 204.95 478.39 L 196.04 481.90 L 186.89 484.79 L 177.49 486.94 L 167.92 488.45 L 158.21 489.27 L 148.40 489.32 L 138.57 488.69 L 128.88 487.39 L 119.40 485.33 L 110.14 482.62 L 101.10 479.25 L 92.32 475.15 L 83.79 470.41 L 75.57 465.04 L 67.73 458.96 L 60.31 452.33 L 53.40 445.24 L 47.17 437.69 L 41.52 429.75 L 36.46 421.42 L 32.07 412.65 L 28.28 403.52 L 25.13 394.09 L 22.75 384.36 L 21.04 374.48 L 19.98 364.61 L 19.64 354.85 L 19.77 345.19 L 20.15 335.61 L 20.62 326.10 L 21.16 316.58 L 21.73 306.99 L 22.35 297.27 L 23.00 287.45 L 23.66 277.62 L 24.33 267.81 L 24.99 258.01 L 25.60 248.24 L 26.17 238.50 L 26.69 228.77 L 27.23 219.04 L 27.80 209.27 L 28.38 199.48 L 28.97 189.66 L 29.55 179.81 L 30.13 169.95 L 30.77 160.08 L 31.52 150.25 L 32.60 140.50 L 34.34 130.95 L 37.07 121.69 L 40.73 112.79 L 45.31 104.36 L 50.96 96.56 L 57.51 89.41 L 64.90 83.01 L 73.17 77.55 L 82.04 73.00 L 91.23 69.46 L 100.59 67.06 L 110.05 65.44 L 119.58 64.15 L 129.17 62.98 L 138.81 61.84 L 148.44 60.70 L 158.06 59.59 L 167.66 58.51 L 177.23 57.50 L 186.76 56.54 L 196.22 55.39 L 205.58 53.63 L 214.77 50.96 L 223.80 47.56 L 232.66 43.65 L 241.34 39.37 L 249.97 34.94 L 258.73 30.65 L 267.74 26.68 L 276.94 23.04 L 286.25 19.75 L 295.64 16.86 L 305.09 14.41 L 314.62 12.49 L 324.24 11.27 L 333.92 10.66 L 343.63 10.68 L 353.34 11.43 L 362.98 12.79 L 372.46 14.76 L 381.69 17.40 L 390.70 20.63 L 399.48 24.44 L 408.01 28.92 L 416.29 33.98 L 424.26 39.59 L 431.84 45.82 L 439.04 52.56 L 445.78 59.76 L 451.96 67.45 L 457.63 75.55 L 462.76 84.01 L 467.24 92.86 L 471.14 102.01 L 474.42 111.39 L 476.98 120.99 L 478.91 130.72 L 480.18 140.53 L 480.70 150.38 L 480.57 160.24 L 479.78 170.08 L 478.25 179.87 L 476.07 189.56 L 473.27 199.05 L 469.79 208.26 L 465.73 217.19 L 461.11 225.80 L 455.90 234.02 L 450.21 241.93 L 444.12 249.55 L 437.65 256.88 L 430.94 264.01 L 424.13 271.04 L 417.28 278.02 L 410.42 284.97 L 403.54 291.89 L 396.63 298.78 L 389.70 305.64 Z" />
</symbol>
</defs>
<!-- isDone: 0 -->
<rect width="700" height="500" style="fill:#fff;stroke-width:0" />
<use class="p0 borderLine" xlink:href="#bl0"/>
<use class="p1 borderLine" xlink:href="#bl1"/>
<use class="p2 borderLine" xlink:href="#bl2"/>
<use class="q0 outLine" xlink:href="#bl0"/>
<use class="q1 outLine" xlink:href="#bl1"/>
<use class="q2 outLine" xlink:href="#bl2"/>
<circle onclick="fromCircle(7)" class="circle" cx="114.2653" cy="147.6645" r="78.7965" />
<text class="nLabel" x="114.27" y="142.66">24</text>
<text class="belong" x="114.27" y="152.66">(1, 2, 3)</text>
<circle onclick="fromCircle(2)" class="circle" cx="213.9892" cy="32.9212" r="16.0843" />
<text class="nLabel" x="213.99" y="27.92">1</text>
<text class="belong" x="213.99" y="37.92">(2)</text>
<circle onclick="fromCircle(3)" class="circle" cx="338.3375" cy="153.3894" r="139.2938" />
<text class="nLabel" x="338.34" y="148.39">75</text>
<text class="belong" x="338.34" y="158.39">(2, 3)</text>
<circle onclick="fromCircle(5)" class="circle" cx="151.8154" cy="357.9564" r="128.6741" />
<text class="nLabel" x="151.82" y="352.96">64</text>
<text class="belong" x="151.82" y="362.96">(1, 3)</text>
<g id="legendBox">
<rect class="p0 borderLine" x="500.00" y="50.00" width="30.00" height="15.00" />
<rect class="q0" x="500.00" y="50.00" width="30.00" height="15.00" />
<text class="legend" x="540.00" y="65.00">LDL</text>
<rect class="p1 borderLine" x="500.00" y="90.00" width="30.00" height="15.00" />
<rect class="q1" x="500.00" y="90.00" width="30.00" height="15.00" />
<text class="legend" x="540.00" y="105.00">HDL</text>
<rect class="p2 borderLine" x="500.00" y="130.00" width="30.00" height="15.00" />
<rect class="q2" x="500.00" y="130.00" width="30.00" height="15.00" />
<text class="legend" x="540.00" y="145.00">AD</text>
</g>
</svg>
